HIERARCHY
ROOT Hips
{
	OFFSET 0.000000 0.000000 0.000000 
	CHANNELS 6 Xposition Yposition Zposition Yrotation Zrotation Xrotation 
	JOINT Lumbar
	{
		OFFSET 0.000000 0.000000 0.000000 
		CHANNELS 3 Zrotation Xrotation Yrotation
		JOINT Neck
		{
			OFFSET 0.000000 0.445665 0.000000 
			CHANNELS 3 Zrotation Xrotation Yrotation
			End Site
			{
				OFFSET 0.000000 0.227535 0.000000 
			}
		}
		JOINT RightShoulder
		{
			OFFSET 0.019635 0.377685 0.194865 
			CHANNELS 3 Zrotation Xrotation Yrotation
			JOINT RightElbow
			{
				OFFSET 0.000000 -0.243375 0.000000 
				CHANNELS 2 Zrotation Yrotation
				JOINT RightWrist
				{
					OFFSET 0.000000 -0.264825 0.000000 
					CHANNELS 2 Zrotation Xrotation
					End Site
					{
						OFFSET 0.006600 -0.176220 0.000990 
					}
				}
			}
		}
		JOINT LeftShoulder
		{
			OFFSET 0.019635 0.377685 -0.194865 
			CHANNELS 3 Zrotation Xrotation Yrotation
			JOINT LeftElbow
			{
				OFFSET 0.000000 -0.243375 0.000000 
				CHANNELS 2 Zrotation Yrotation
				JOINT LeftWrist
				{
					OFFSET 0.000000 -0.264825 0.000000 
					CHANNELS 2 Zrotation Xrotation
					End Site
					{
						OFFSET 0.006600 -0.176220 -0.000990 
					}
				}
			}
		}
	}
	JOINT RightHip
	{
		OFFSET 0.052140 -0.069960 0.075570 
		CHANNELS 3 Zrotation Xrotation Yrotation
		JOINT RightKnee
		{
			OFFSET 0.000000 -0.402270 0.000000 
			CHANNELS 1 Zrotation
			JOINT RightAnkle
			{
				OFFSET 0.000000 -0.404085 0.000000 
				CHANNELS 3 Zrotation Xrotation Yrotation
				End Site
				{
					OFFSET 0.204105 -0.089430 0.008415 
				}
			}
		}
	}
	JOINT LeftHip
	{
		OFFSET 0.052140 -0.069960 -0.075570 
		CHANNELS 3 Zrotation Xrotation Yrotation
		JOINT LeftKnee
		{
			OFFSET 0.000000 -0.402270 0.000000 
			CHANNELS 1 Zrotation
			JOINT LeftAnkle
			{
				OFFSET 0.000000 -0.404085 0.000000 
				CHANNELS 3 Zrotation Xrotation Yrotation
				End Site
				{
					OFFSET 0.204105 -0.089430 -0.008415 
				}
			}
		}
	}
}
MOTION
Frames: 34
Frame Time: 0.02
-0.23454 0.96202 0.12027 182.40335 0 -6.31131 -12.9765 -3.00138 3.11215 -9.70724 5.16149 4.32898 95.00255 -23.83083 59.33356 58.07861 109.01721 15.76221 2.5476 51.55406 27.29188 -28.57385 65.57626 -67.74633 -10.52784 -0.49699 -7.37004 0.99674 1.8616 -16.34908 -3.50816 -2.13818 1.02389 2.06381 3.03336 -3.00656 -8.59142 2.68416 0.82973 -3.40879
-0.23503 0.96244 0.1203 182.38665 0 -6.41644 -12.75988 -2.49604 2.87384 -9.89697 5.31269 4.37211 94.43141 -22.93755 59.44136 59.11344 109.90876 16.79069 2.474 50.32687 28.03563 -27.84917 66.56033 -67.94964 -10.60971 -0.49556 -7.31774 1.04676 1.86118 -16.40079 -3.74501 -2.06496 1.27101 2.05051 3.1369 -2.97704 -8.62566 2.69174 0.83942 -3.40678
-0.23545 0.96304 0.12031 182.37774 0 -6.58042 -12.63876 -1.9571 2.62698 -10.10989 5.36034 4.32423 93.79605 -22.20265 59.58389 60.739 110.51848 17.8601 2.33887 48.91967 29.11873 -27.15514 68.13421 -67.97744 -10.8036 -0.53492 -7.31702 1.14387 1.83871 -16.3246 -4.09825 -1.98105 1.58001 2.03722 3.30083 -2.92859 -8.64617 2.67546 0.85133 -3.41843
-0.2359 0.96355 0.12034 182.36166 0 -6.71664 -12.48224 -1.43635 2.38595 -10.3117 5.459 4.31791 93.18965 -21.40483 59.71052 62.1218 111.26617 18.90244 2.23701 47.56695 30.05238 -26.43811 69.47624 -68.07286 -10.96375 -0.55114 -7.29433 1.21823 1.82705 -16.30189 -4.39785 -1.90314 1.85859 2.02343 3.43597 -2.88792 -8.67142 2.66843 0.86327 -3.42185
-0.23637 0.96408 0.12034 182.35944 0 -6.8584 -12.29241 -0.90207 2.13578 -10.51715 5.53703 4.30993 92.58006 -20.57194 59.83812 63.41451 111.97008 19.97505 2.11527 46.32929 30.97696 -25.76044 70.68013 -68.21519 -11.05214 -0.58741 -7.26532 1.29917 1.81283 -16.2976 -4.70358 -1.81923 2.14888 2.01237 3.57826 -2.84978 -8.70458 2.66823 0.87136 -3.43331
-0.23676 0.96462 0.1204 182.33122 0 -7.00204 -12.19535 -0.38877 1.90286 -10.72043 5.63471 4.28466 91.9636 -19.85034 59.97169 65.03079 112.69853 20.99727 2.01924 44.80864 31.99455 -25.00714 72.30761 -68.21928 -11.31653 -0.59167 -7.26191 1.37722 1.79821 -16.22485 -5.02301 -1.74588 2.4284 1.99567 3.71925 -2.80264 -8.71772 2.64802 0.88766 -3.43151
-0.23695 0.96514 0.12065 182.22387 0 -7.13734 -12.32027 0.06203 1.72133 -10.90769 5.81508 4.22705 91.34271 -19.37505 60.11406 67.36274 113.56868 21.86022 2.01064 42.56015 33.21234 -24.0446 74.94291 -67.89223 -12.03661 -0.49349 -7.31487 1.43615 1.79038 -15.99628 -5.35197 -1.70243 2.66667 1.95966 3.84399 -2.73011 -8.67476 2.57946 0.92758 -3.38935
-0.23705 0.96566 0.12098 182.09132 0 -7.27212 -12.5371 0.4896 1.55751 -11.09265 6.01885 4.1565 90.71836 -19.00992 60.26101 70.00285 114.47201 22.67359 2.02938 40.03229 34.50518 -23.00396 77.98464 -67.43237 -12.93005 -0.3622 -7.39215 1.49033 1.78231 -15.70303 -5.69014 -1.67045 2.89098 1.91849 3.96473 -2.65013 -8.61248 2.4914 0.97532 -3.33367
-0.23718 0.96617 0.12128 181.97386 0 -7.40643 -12.71868 0.92549 1.38439 -11.28112 6.21043 4.09641 90.09632 -18.60791 60.40532 72.52097 115.35811 23.51691 2.03447 37.62515 35.74602 -21.99376 80.85005 -67.02774 -13.74627 -0.24873 -7.45934 1.54631 1.77267 -15.43832 -6.02366 -1.63465 3.11915 1.88207 4.08578 -2.57714 -8.56168 2.41158 1.01846 -3.28432
-0.23736 0.9667 0.12153 181.84087 0 -7.54593 -12.87593 1.37268 1.21539 -11.45954 6.40474 4.01377 89.46694 -18.15492 60.55332 74.98491 116.24623 24.33018 2.04294 35.23457 37.07727 -21.00406 83.70284 -66.6345 -14.56108 -0.12545 -7.52409 1.60548 1.76953 -15.17278 -6.36368 -1.59267 3.3603 1.83571 4.21547 -2.48861 -8.4996 2.33356 1.06621 -3.23403
-0.23741 0.9672 0.12191 181.73469 0 -7.67357 -13.10466 1.78953 1.04321 -11.65867 6.60047 3.97627 88.85529 -17.8334 60.6941 77.62579 117.13819 25.19385 2.05125 32.74986 38.22998 -19.95514 86.66833 -66.19334 -15.41694 -0.01361 -7.59926 1.65623 1.75286 -14.89521 -6.69029 -1.56631 3.56993 1.80855 4.32525 -2.43046 -8.4559 2.24747 1.10606 -3.18309
-0.23717 0.96763 0.12259 181.70392 0 -7.76954 -13.50585 2.13494 0.84862 -11.90968 6.79334 4.06673 88.27414 -17.83684 60.815 80.68597 118.06253 26.20771 2.05609 30.03813 38.89972 -18.74101 89.86135 -65.60989 -16.35671 0.05346 -7.69488 1.68495 1.70105 -14.60162 -6.98142 -1.58151 3.69853 1.83795 4.38193 -2.46202 -8.47384 2.14403 1.12325 -3.12686
-0.2368 0.96804 0.1234 181.70174 0 -7.85306 -13.97571 2.44902 0.65201 -12.18249 6.98738 4.20361 87.71547 -17.97001 60.92804 83.90812 118.98445 27.27375 2.05933 27.24961 39.38007 -17.47395 93.14693 -64.99146 -17.32872 0.10893 -7.80023 1.70506 1.63541 -14.29863 -7.25735 -1.61187 3.79505 1.88643 4.41818 -2.52369 -8.5099 2.03327 1.13202 -3.07158
-0.23649 0.96845 0.12415 181.68973 0 -7.94138 -14.41534 2.77312 0.46246 -12.44918 7.18233 4.31945 87.15877 -18.05035 61.04378 87.05072 119.89055 28.31675 2.06137 24.51941 39.92682 -16.2443 96.37785 -64.41798 -18.27701 0.17335 -7.90249 1.72886 1.57471 -13.99953 -7.53732 -1.63453 3.90432 1.92466 4.46294 -2.56911 -8.53362 1.92583 1.14393 -3.0203
-0.23619 0.96889 0.1249 181.66401 0 -8.03354 -14.85443 3.11495 0.24754 -12.7002 7.37268 4.43408 86.54809 -18.10902 61.16354 90.23486 120.87309 29.35626 2.07295 21.67725 40.55973 -14.95459 99.68005 -63.71773 -19.27011 0.22374 -8.00033 1.75366 1.51941 -13.69928 -7.83025 -1.66097 4.02108 1.96935 4.51106 -2.62533 -8.5738 1.81759 1.159 -2.95005
-0.23583 0.96926 0.12568 181.67331 0 -8.11449 -15.30936 3.41182 0.08481 -12.98858 7.57169 4.563 86.05821 -18.24183 61.27279 93.36017 121.69038 30.41477 2.06333 19.05775 40.96686 -13.77963 102.84597 -63.27417 -20.17477 0.29973 -8.109 1.77415 1.44992 -13.40059 -8.09185 -1.68304 4.11453 2.00522 4.54714 -2.666 -8.58448 1.7097 1.16542 -2.91947
-0.23533 0.96943 0.12654 181.77797 0 -8.16955 -15.79376 3.59976 0.06617 -13.37884 7.80203 4.71513 85.87089 -18.54968 61.35651 96.33648 122.09636 31.52306 2.00067 17.03981 40.79878 -12.92491 105.64628 -63.55577 -20.83035 0.45282 -8.24806 1.78674 1.34175 -13.10462 -8.27534 -1.68872 4.15359 2.01166 4.5568 -2.65922 -8.50745 1.60338 1.14966 -3.00028
-0.23477 0.96953 0.12744 181.91592 0 -8.21339 -16.29068 3.74221 0.10013 -13.80505 8.03947 4.88086 85.80894 -18.92657 61.42958 99.2353 122.32838 32.64611 1.91581 15.25651 40.40946 -12.18999 108.29681 -64.09597 -21.39427 0.63121 -8.39696 1.79497 1.22041 -12.81173 -8.42685 -1.68951 4.16996 2.00868 4.55473 -2.63537 -8.40061 1.49804 1.12552 -3.12055
-0.23425 0.96966 0.12831 182.03506 0 -8.26103 -16.77986 3.9007 0.11025 -14.21235 8.26857 5.04383 85.70659 -19.27008 61.50652 102.1346 122.60992 33.7572 1.83738 13.3876 40.11952 -11.40649 110.99331 -64.51364 -21.99747 0.79555 -8.53944 1.80397 1.1069 -12.52017 -8.58993 -1.69288 4.19539 2.01025 4.55684 -2.61734 -8.30862 1.39306 1.10535 -3.22161
-0.23371 0.9698 0.1292 182.17084 0 -8.31368 -17.28061 4.07777 0.12005 -14.63186 8.51947 5.1946 85.53586 -19.62717 61.58743 105.19112 123.01327 34.89603 1.77362 11.42502 39.82707 -10.59501 113.79107 -64.95194 -22.61241 0.97044 -8.69079 1.81774 0.98479 -12.21627 -8.7652 -1.69534 4.22497 2.01123 4.56305 -2.60801 -8.21146 1.28418 1.08409 -3.32857
-0.23317 0.9699 0.13006 182.27933 0 -8.35346 -17.75877 4.20558 0.14299 -15.03346 8.72646 5.3726 85.53601 -19.97 61.65747 107.89375 123.12518 35.97521 1.67496 9.71684 39.49086 -9.87261 116.33547 -65.40812 -23.1801 1.12933 -8.8255 1.82071 0.87805 -11.9395 -8.90745 -1.69829 4.24094 2.01111 4.55825 -2.57675 -8.11811 1.18403 1.06335 -3.43199
-0.23265 0.96989 0.13084 182.30567 0 -8.35994 -18.17534 4.21016 0.18952 -15.38292 8.81189 5.62904 85.98596 -20.26146 61.70167 109.68515 122.44475 36.92502 1.47783 8.63471 39.07925 -9.35373 118.26217 -65.85935 -23.64366 1.23917 -8.91486 1.79452 0.81373 -11.73212 -8.96817 -1.70395 4.2251 2.00862 4.52547 -2.48334 -8.03949 1.10558 1.04504 -3.52149
-0.23212 0.96983 0.13159 182.30308 0 -8.354 -18.56746 4.16658 0.24739 -15.71179 8.85263 5.91085 86.60154 -20.53458 61.73504 111.11239 121.48318 37.80602 1.24794 7.80547 38.6339 -8.92339 119.9291 -66.3179 -24.06163 1.33175 -8.98653 1.75772 0.76602 -11.55293 -8.99646 -1.71016 4.19643 2.00553 4.48218 -2.36928 -7.96619 1.03634 1.02776 -3.60517
-0.23159 0.96979 0.13234 182.31256 0 -8.35418 -18.96814 4.14414 0.29998 -16.04607 8.91289 6.17658 87.13589 -20.81224 61.77245 112.67601 120.66942 38.69367 1.03774 6.87212 38.21051 -8.46104 121.68604 -66.76776 -24.49803 1.4315 -9.06426 1.72606 0.71293 -11.36395 -9.03856 -1.71591 4.17371 2.0037 4.44408 -2.2684 -7.89245 0.96435 1.01078 -3.68774
-0.23107 0.96975 0.13311 182.32737 0 -8.35204 -19.38088 4.1233 0.35505 -16.39856 8.97674 6.4624 87.70099 -21.10851 61.81333 114.36429 119.76278 39.68889 0.80569 5.89725 37.75089 -7.96692 123.56033 -67.25039 -24.94201 1.53528 -9.15066 1.69288 0.65021 -11.16212 -9.08368 -1.72238 4.14986 1.99745 4.40381 -2.15124 -7.80947 0.8863 0.99037 -3.787
-0.23052 0.9697 0.13384 182.32424 0 -8.35183 -19.76151 4.08822 0.4068 -16.70741 9.02242 6.71174 88.23823 -21.36065 61.84441 115.70204 118.98783 40.43967 0.61264 5.07088 37.36216 -7.55993 125.12527 -67.66175 -25.35918 1.62586 -9.21473 1.66046 0.61166 -10.99396 -9.11496 -1.72757 4.12537 2.00027 4.3657 -2.06292 -7.74718 0.82309 0.97729 -3.85027
-0.22991 0.96962 0.1345 182.27428 0 -8.361 -20.06751 4.02641 0.44775 -16.90323 9.02874 6.85805 88.67 -21.49524 61.85231 116.2055 118.62308 40.5645 0.52727 4.54959 37.17428 -7.35935 125.94288 -67.88503 -25.7254 1.68723 -9.22085 1.63214 0.63605 -10.90993 -9.11821 -1.72894 4.10462 2.02934 4.33635 -2.06248 -7.74263 0.79835 0.98557 -3.80971
-0.22928 0.96952 0.13511 182.20779 0 -8.37243 -20.34025 3.95203 0.4845 -17.0549 9.01836 6.96597 89.06499 -21.58544 61.85052 116.35998 118.4057 40.43942 0.48395 4.17623 37.06062 -7.24547 126.45003 -68.03301 -26.06421 1.7352 -9.20513 1.60508 0.68424 -10.85925 -9.1084 -1.72907 4.08339 2.06741 4.30957 -2.09117 -7.75853 0.78831 1.00093 -3.73406
-0.22866 0.96943 0.13574 182.15167 0 -8.38221 -20.62308 3.88311 0.52219 -17.2254 9.01563 7.08885 89.46856 -21.69608 61.85244 116.64648 118.13618 40.40785 0.42665 3.76185 36.91617 -7.09909 127.07257 -68.20735 -26.40852 1.78719 -9.19988 1.57784 0.72144 -10.79448 -9.10321 -1.72993 4.06085 2.10071 4.28147 -2.10466 -7.7639 0.77165 1.01224 -3.67804
-0.22803 0.96934 0.13639 182.0829 0 -8.39411 -20.92706 3.81355 0.56441 -17.40171 9.01095 7.22318 89.913 -21.80618 61.85699 117.03592 117.79366 40.45945 0.34624 3.24448 36.758 -6.92537 127.79749 -68.41557 -26.78151 1.84736 -9.19197 1.54856 0.7599 -10.72587 -9.10235 -1.73012 4.04409 2.13685 4.25351 -2.12612 -7.7745 0.75488 1.02723 -3.6061
-0.22743 0.96923 0.13697 182.03644 0 -8.40235 -21.17845 3.74298 0.59601 -17.55409 9.00715 7.32415 90.26055 -21.9056 61.85382 117.12848 117.64244 40.27828 0.32475 2.97508 36.64651 -6.82972 128.23505 -68.5349 -27.08766 1.88749 -9.18434 1.52399 0.80121 -10.67321 -9.08988 -1.73138 4.01562 2.16921 4.22617 -2.13763 -7.7792 0.74194 1.03603 -3.55931
-0.22692 0.96909 0.13737 182.05979 0 -8.39941 -21.30078 3.6728 0.59966 -17.66461 9.00825 7.34243 90.3556 -21.99895 61.83256 116.52415 117.97989 39.52448 0.4529 3.33961 36.6462 -6.91396 127.9878 -68.42908 -27.22616 1.87573 -9.18534 1.51195 0.84444 -10.65314 -9.04813 -1.73604 3.95268 2.1891 4.19875 -2.11985 -7.76084 0.73409 1.02801 -3.58784
-0.22646 0.96893 0.1377 182.10549 0 -8.39284 -21.36973 3.60227 0.59271 -17.74995 9.0113 7.32821 90.3524 -22.0808 61.80376 115.62716 118.50645 38.54366 0.63958 3.95047 36.69037 -7.07635 127.45676 -68.23594 -27.29654 1.84426 -9.18695 1.50469 0.88974 -10.64855 -8.99537 -1.74178 3.87842 2.20484 4.17211 -2.09044 -7.73619 0.72991 1.01327 -3.64307
-0.22599 0.96878 0.13805 182.13843 0 -8.38837 -21.45828 3.5321 0.59025 -17.83837 9.01482 7.3288 90.38938 -22.15983 61.77796 114.84237 118.95068 37.66131 0.80145 4.45628 36.7142 -7.21157 127.03619 -68.08157 -27.39181 1.8218 -9.18671 1.49544 0.93402 -10.63882 -8.94817 -1.74691 3.81097 2.22238 4.14599 -2.06266 -7.71546 0.72525 1.0001 -3.68832
